<mxfile host="Electron" modified="2025-03-06T10:45:43.647Z" agent="Mozilla/5.0 (Windows NT 10.0; Win64; x64) AppleWebKit/537.36 (KHTML, like Gecko) draw.io/24.5.3 Chrome/124.0.6367.207 Electron/30.0.6 Safari/537.36" etag="h-znZPpwyCjh0bLDCoDB" version="24.5.3" type="device">
  <diagram name="Seite-1" id="tQ0ftKxHk6KphrgHs4fO">
    <mxGraphModel dx="988" dy="592" grid="1" gridSize="10" guides="1" tooltips="1" connect="1" arrows="1" fold="1" page="1" pageScale="1" pageWidth="827" pageHeight="1169" math="0" shadow="0">
      <root>
        <mxCell id="0" />
        <mxCell id="1" parent="0" />
        <mxCell id="mLHIJTyr5hpvtW-Wlfsm-9" value="Closing" style="text;html=1;align=center;verticalAlign=middle;whiteSpace=wrap;rounded=0;fillColor=#dae8fc;strokeColor=#6c8ebf;" parent="1" vertex="1">
          <mxGeometry x="650" y="490" width="100" height="30" as="geometry" />
        </mxCell>
        <mxCell id="m0PQreRef5mGNc5vd1aa-3" value="Planning" style="text;html=1;align=center;verticalAlign=middle;whiteSpace=wrap;rounded=0;fillColor=#dae8fc;strokeColor=#6c8ebf;" vertex="1" parent="1">
          <mxGeometry x="230" y="490" width="100" height="30" as="geometry" />
        </mxCell>
        <mxCell id="m0PQreRef5mGNc5vd1aa-5" value="Execution" style="text;html=1;align=center;verticalAlign=middle;whiteSpace=wrap;rounded=0;fillColor=#dae8fc;strokeColor=#6c8ebf;" vertex="1" parent="1">
          <mxGeometry x="370" y="490" width="100" height="30" as="geometry" />
        </mxCell>
        <mxCell id="m0PQreRef5mGNc5vd1aa-6" value="Monitoring" style="text;html=1;align=center;verticalAlign=middle;whiteSpace=wrap;rounded=0;fillColor=#dae8fc;strokeColor=#6c8ebf;" vertex="1" parent="1">
          <mxGeometry x="510" y="490" width="100" height="30" as="geometry" />
        </mxCell>
        <mxCell id="m0PQreRef5mGNc5vd1aa-8" value="Initiation" style="text;html=1;align=center;verticalAlign=middle;whiteSpace=wrap;rounded=0;fillColor=#dae8fc;strokeColor=#6c8ebf;" vertex="1" parent="1">
          <mxGeometry x="90" y="490" width="100" height="30" as="geometry" />
        </mxCell>
        <mxCell id="m0PQreRef5mGNc5vd1aa-10" value="" style="endArrow=blockThin;startArrow=none;html=1;rounded=0;startFill=0;endFill=1;exitX=1;exitY=0.5;exitDx=0;exitDy=0;entryX=0;entryY=0.5;entryDx=0;entryDy=0;" edge="1" parent="1" source="m0PQreRef5mGNc5vd1aa-5" target="m0PQreRef5mGNc5vd1aa-6">
          <mxGeometry width="50" height="50" relative="1" as="geometry">
            <mxPoint x="460" y="595" as="sourcePoint" />
            <mxPoint x="500" y="595" as="targetPoint" />
          </mxGeometry>
        </mxCell>
        <mxCell id="m0PQreRef5mGNc5vd1aa-17" value="" style="endArrow=blockThin;startArrow=none;html=1;rounded=0;startFill=0;endFill=1;exitX=1;exitY=0.5;exitDx=0;exitDy=0;entryX=0;entryY=0.5;entryDx=0;entryDy=0;" edge="1" parent="1" source="m0PQreRef5mGNc5vd1aa-3" target="m0PQreRef5mGNc5vd1aa-5">
          <mxGeometry width="50" height="50" relative="1" as="geometry">
            <mxPoint x="480" y="515" as="sourcePoint" />
            <mxPoint x="520" y="515" as="targetPoint" />
          </mxGeometry>
        </mxCell>
        <mxCell id="m0PQreRef5mGNc5vd1aa-18" value="" style="endArrow=blockThin;startArrow=none;html=1;rounded=0;startFill=0;endFill=1;exitX=1;exitY=0.5;exitDx=0;exitDy=0;entryX=0;entryY=0.5;entryDx=0;entryDy=0;" edge="1" parent="1" source="m0PQreRef5mGNc5vd1aa-6" target="mLHIJTyr5hpvtW-Wlfsm-9">
          <mxGeometry width="50" height="50" relative="1" as="geometry">
            <mxPoint x="560" y="560" as="sourcePoint" />
            <mxPoint x="600" y="560" as="targetPoint" />
          </mxGeometry>
        </mxCell>
        <mxCell id="m0PQreRef5mGNc5vd1aa-19" value="" style="endArrow=blockThin;startArrow=none;html=1;rounded=0;startFill=0;endFill=1;exitX=1;exitY=0.5;exitDx=0;exitDy=0;entryX=0;entryY=0.5;entryDx=0;entryDy=0;" edge="1" parent="1" source="m0PQreRef5mGNc5vd1aa-8" target="m0PQreRef5mGNc5vd1aa-3">
          <mxGeometry width="50" height="50" relative="1" as="geometry">
            <mxPoint x="190" y="540" as="sourcePoint" />
            <mxPoint x="230" y="540" as="targetPoint" />
          </mxGeometry>
        </mxCell>
      </root>
    </mxGraphModel>
  </diagram>
</mxfile>
